<svg width="766" height="651" viewBox="0 0 766 651" fill="none" xmlns="http://www.w3.org/2000/svg">
<rect x="10" y="10" width="746" height="631" fill="#5AB9EA" stroke="white" stroke-width="20"/>
<path d="M465 552.815L465 298.518L560.568 552.815H465Z" fill="white" stroke="black" stroke-width="10"/>
<path d="M667.788 292L667.788 546.297L572.22 292H667.788Z" fill="white" stroke="black" stroke-width="10"/>
<path d="M98 552.815L98 283.46L355.668 552.815H98Z" fill="white" stroke="black" stroke-width="10"/>
<path d="M362.37 552.815L362.37 283.46L104.703 552.815H362.37Z" fill="white" stroke="black" stroke-width="10"/>
<path d="M668 152C668 165.975 659.943 179.126 646.514 188.981C633.109 198.82 614.78 205 595.5 205C586.042 205 579.085 203.055 573.898 199.972C568.732 196.902 564.985 192.504 562.251 187.029C556.654 175.817 555.5 160.525 555.5 144.5C555.5 136.496 555.655 129.641 556.463 123.779C557.27 117.928 558.685 113.434 560.954 109.987C565.216 103.514 573.743 99 593.5 99C612.791 99 631.65 105.188 645.58 115.066C659.557 124.978 668 138.132 668 152Z" fill="white" stroke="black" stroke-width="10"/>
<rect x="464" y="99" width="124.456" height="106" fill="white" stroke="black" stroke-width="10"/>
<path d="M371.077 100.025L229.911 279.027L88.7446 100.025L371.077 100.025Z" fill="white" stroke="black" stroke-width="10"/>
<rect x="573" y="104" width="21" height="96" fill="white"/>
</svg>
