<svg width="597" height="543" viewBox="0 0 597 543" fill="none" xmlns="http://www.w3.org/2000/svg">
<path d="M409.811 537.63L409.811 283.333L505.379 537.63H409.811Z" fill="white" stroke="black" stroke-width="10"/>
<path d="M591.87 260.815L591.87 515.112L496.302 260.815H591.87Z" fill="white" stroke="black" stroke-width="10"/>
<path d="M38.4316 537.63L38.4317 268.275L296.099 537.63H38.4316Z" fill="white" stroke="black" stroke-width="10"/>
<path d="M307.701 537.63L307.701 268.275L50.0336 537.63H307.701Z" fill="white" stroke="black" stroke-width="10"/>
<path d="M592 119.059C592 146.191 564.738 169.796 528.916 169.796C493.093 169.796 465.832 146.191 465.832 119.059C465.832 91.9266 493.093 68.3218 528.916 68.3218C564.738 68.3218 592 91.9266 592 119.059Z" fill="white" stroke="black" stroke-width="10"/>
<rect x="399.032" y="68.3218" width="124.456" height="101.474" fill="white" stroke="black" stroke-width="10"/>
<path d="M316.192 69.1235L175.026 248.125L33.8598 69.1235L316.192 69.1235Z" fill="white" stroke="black" stroke-width="10"/>
<rect x="508" y="72.9464" width="20.5777" height="92.3968" fill="white"/>
</svg>
